<?xml version="1.0" standalone="no"?>
<!DOCTYPE svg PUBLIC "-//W3C//DTD SVG 20010904//EN"
 "http://www.w3.org/TR/2001/REC-SVG-20010904/DTD/svg10.dtd">
<svg version="1.0" xmlns="http://www.w3.org/2000/svg"
 width="741.000000pt" height="639.000000pt" viewBox="0 0 741.000000 639.000000"
 preserveAspectRatio="xMidYMid meet">

<g transform="translate(0.000000,639.000000) scale(0.100000,-0.100000)"
fill="#8c3044" stroke="none">
<path d="M4780 6265 c-167 -14 -191 -18 -348 -65 -145 -43 -287 -101 -431
-176 -547 -284 -836 -699 -891 -1279 -19 -208 29 -464 122 -650 81 -161 233
-344 371 -448 114 -86 160 -102 208 -77 28 15 23 33 -13 55 -107 62 -303 254
-388 381 -154 228 -219 451 -207 717 7 144 22 231 68 369 72 220 160 362 333
534 92 91 154 142 251 206 255 168 582 299 850 340 109 16 632 16 750 0 271
-38 391 -64 553 -118 277 -93 485 -215 661 -387 235 -231 365 -487 401 -788
39 -331 -105 -730 -391 -1086 -141 -176 -359 -380 -512 -480 -84 -55 -193
-107 -207 -98 -7 4 -8 50 -5 133 17 399 67 619 209 923 123 264 393 640 551
765 26 20 27 24 10 24 -34 0 -205 -60 -286 -101 -219 -110 -445 -266 -683
-473 -382 -332 -695 -674 -1174 -1282 l-71 -91 -107 -6 c-59 -4 -175 -7 -258
-7 -164 0 -712 -24 -896 -39 -750 -62 -1171 -202 -1412 -473 -190 -212 -281
-429 -282 -668 0 -175 42 -300 148 -439 182 -240 661 -413 1027 -372 308 35
496 134 733 385 74 77 153 164 177 192 260 306 358 430 554 700 73 102 414
522 490 605 l24 26 263 6 c145 4 291 10 326 13 l62 7 0 -55 c0 -108 -70 -438
-133 -628 -99 -297 -171 -471 -299 -725 -64 -126 -95 -172 -155 -225 -143
-127 -345 -145 -537 -48 -206 104 -339 104 -382 1 -20 -46 -11 -79 30 -118 36
-34 81 -48 266 -86 58 -11 139 -34 180 -50 92 -35 215 -109 215 -129 0 -18
-53 -48 -250 -139 -256 -119 -296 -135 -640 -262 -282 -105 -517 -174 -728
-214 -379 -73 -951 -54 -1277 44 -276 82 -533 224 -755 416 -596 515 -835
1280 -650 2082 97 419 288 825 507 1073 200 228 445 386 688 443 36 9 90 22
120 29 37 9 126 13 270 13 195 0 228 -3 350 -28 74 -15 187 -46 250 -68 63
-22 124 -41 134 -42 22 -2 47 37 39 60 -16 42 -333 135 -557 164 -131 17 -427
6 -541 -19 -456 -102 -803 -377 -1057 -838 -136 -245 -243 -542 -303 -839 -62
-306 -62 -663 1 -949 179 -818 859 -1476 1684 -1631 156 -29 284 -38 565 -38
396 0 567 26 950 143 138 42 431 145 605 213 362 141 391 153 582 246 70 34
129 61 133 61 3 0 23 -13 43 -28 276 -210 390 -283 562 -359 178 -78 352 -136
540 -181 25 -6 70 -17 100 -24 35 -8 123 -13 245 -13 212 1 327 18 505 77 194
63 310 139 418 276 155 195 219 329 248 526 22 149 0 280 -72 417 -45 86 -116
165 -198 223 -81 57 -137 81 -228 100 -434 90 -747 7 -1333 -354 -91 -55 -377
-247 -480 -320 -126 -90 -314 -200 -341 -200 -9 0 -38 18 -64 40 -26 22 -76
57 -111 78 -34 21 -64 43 -66 49 -3 7 29 10 89 10 102 -1 137 8 245 61 78 37
114 65 310 242 305 274 455 455 591 710 118 221 217 512 262 775 15 89 26 115
45 115 51 0 322 159 450 264 98 81 121 102 225 206 328 329 497 650 541 1032
18 155 -6 340 -67 511 -88 243 -276 507 -478 671 -85 68 -209 156 -220 156 -3
0 -29 14 -58 31 -120 71 -358 160 -543 204 -164 39 -268 55 -460 70 -211 17
-371 17 -585 0z m1140 -1934 c0 -5 -4 -11 -8 -13 -15 -6 -158 -221 -226 -340
-146 -256 -261 -558 -291 -769 -4 -25 -10 -50 -13 -56 -8 -13 -167 -30 -352
-38 -74 -3 -154 -8 -178 -11 -72 -9 -65 12 49 153 124 154 234 285 309 368 30
34 80 90 110 126 79 92 574 589 588 589 7 0 12 -4 12 -9z m-1483 -1337 c3 -8
-194 -279 -417 -574 -27 -36 -66 -87 -86 -115 -229 -308 -498 -644 -591 -740
-212 -217 -518 -330 -803 -295 -409 49 -676 273 -730 613 -43 267 101 560 364
739 293 201 885 321 1811 368 373 19 447 20 452 4z m2268 -1149 c127 -23 154
-31 232 -70 131 -65 231 -176 279 -312 32 -91 34 -272 5 -378 -62 -219 -256
-475 -426 -562 -187 -96 -396 -143 -638 -143 -194 0 -368 35 -624 124 -278 98
-367 147 -599 334 -120 97 -126 102 -121 115 2 7 33 30 69 52 69 42 389 268
561 395 306 228 626 391 871 445 84 18 293 18 391 0z"/>
</g>
</svg>
